<svg width="82" height="65" viewBox="0 0 82 65" fill="none" xmlns="http://www.w3.org/2000/svg">
<path fill-rule="evenodd" clip-rule="evenodd" d="M35.8494 3.55859C29.1018 -2.4603 15.9434 0.0794686 19.8689 4.37626C30.5731 16.0928 30.4871 22.7598 27.1186 27.252C23.319 32.3191 36.0415 36.4442 41.4121 28.5336C47.5431 19.5029 43.0599 9.99024 35.8494 3.55859Z" fill="#1E88E5"/>
<path fill-rule="evenodd" clip-rule="evenodd" d="M10.2681 26.1092C10.2681 26.1092 11.4013 38.9908 5.91027 37.7765C0.419253 36.5622 -2.95329 19.2477 3.60579 9.61602C10.1649 -0.0157495 10.8867 18.1312 10.8867 18.1312C10.8867 18.1312 11.7092 3.04699 15.5188 4.47152C19.3286 5.89613 28.4369 19.556 26.1942 24.4699C23.9515 29.3837 17.3091 16.3261 17.3091 16.3261C17.3091 16.3261 21.8588 34.5293 17.5475 34.5392C13.2363 34.5491 10.2681 26.1092 10.2681 26.1092Z" fill="#1E88E5"/>
<path fill-rule="evenodd" clip-rule="evenodd" d="M43.0008 8.80217C43.0008 8.80217 53.0746 19.6651 40.3298 33.6432C41.0039 37.7168 51.3877 51.8547 55.5411 46.5031C59.6946 41.1515 54.2332 35.051 49.6804 32.0957C51.4376 31.856 63.0132 37.4829 65.0101 30.1344C67.0069 22.7859 52.8429 19.8478 52.8429 19.8478C52.8429 19.8478 68.0016 19.5054 65.6054 11.5977C63.2091 3.69015 50.2694 4.72851 43.0008 8.80217Z" fill="#1E88E5"/>
<path d="M13.273 43.4753C14.9934 43.4753 16.3881 42.0806 16.3881 40.3602C16.3881 38.6398 14.9934 37.2451 13.273 37.2451C11.5526 37.2451 10.1579 38.6398 10.1579 40.3602C10.1579 42.0806 11.5526 43.4753 13.273 43.4753Z" fill="#1E88E5"/>
<path fill-rule="evenodd" clip-rule="evenodd" d="M20.6193 34.539C20.6193 34.539 21.8974 28.3067 23.6546 30.3036C25.4119 32.3005 29.015 38.6904 29.015 38.6904C29.015 38.6904 36.5144 33.7422 38.032 34.539C39.5496 35.3357 40.9501 39.3841 40.3297 40.8744C39.7094 42.3647 31.771 44.7882 31.771 44.7882C31.771 44.7882 41.4667 56.9019 39.31 58.7391C37.1534 60.5762 33.4975 61.4548 31.771 60.5762C30.0445 59.6975 26.5441 47.6976 26.5441 47.6976C26.5441 47.6976 19.3733 55.2565 17.2167 54.2181C15.0601 53.1798 12.5839 50.7461 12.7437 48.8478C12.9034 46.9495 24.054 42.2848 24.054 42.2848L20.6193 34.539Z" fill="#1E88E5"/>
<path fill-rule="evenodd" clip-rule="evenodd" d="M36.6207 46.1376L42.6715 43.826L51.9177 58.9873C51.9177 58.9873 63.6792 54.7038 64.767 56.9474C65.8549 59.1909 67.2826 64.9017 62.6595 64.9698C58.0364 65.0377 46.1388 64.9698 46.1388 64.9698L36.6207 46.1376Z" fill="#1E88E5"/>
<path fill-rule="evenodd" clip-rule="evenodd" d="M72.3004 41.6753C90.6195 43.3917 75.9248 31.3802 62.6882 35.9729C57.3731 37.8171 72.494 47.5558 72.494 47.5558C72.494 47.5558 57.4919 43.4715 57.0992 48.7436C56.7065 54.0158 75.1243 59.1368 78.5266 54.9671C81.9289 50.7974 77.9169 44.6469 72.3004 41.6753Z" fill="#1E88E5"/>
<path fill-rule="evenodd" clip-rule="evenodd" d="M35.8494 3.55859C29.1018 -2.4603 15.9434 0.0794686 19.8689 4.37626C30.5731 16.0928 30.4871 22.7598 27.1186 27.252C23.319 32.3191 36.0415 36.4442 41.4121 28.5336C47.5431 19.5029 43.0599 9.99024 35.8494 3.55859Z" fill="#1E88E5"/>
<path fill-rule="evenodd" clip-rule="evenodd" d="M10.2681 26.1092C10.2681 26.1092 11.4013 38.9908 5.91027 37.7765C0.419253 36.5622 -2.95329 19.2477 3.60579 9.61602C10.1649 -0.0157495 10.8867 18.1312 10.8867 18.1312C10.8867 18.1312 11.7092 3.04699 15.5188 4.47152C19.3286 5.89613 28.4369 19.556 26.1942 24.4699C23.9515 29.3837 17.3091 16.3261 17.3091 16.3261C17.3091 16.3261 21.8588 34.5293 17.5475 34.5392C13.2363 34.5491 10.2681 26.1092 10.2681 26.1092Z" fill="#1E88E5"/>
<path fill-rule="evenodd" clip-rule="evenodd" d="M43.0008 8.80217C43.0008 8.80217 53.0746 19.6651 40.3298 33.6432C41.0039 37.7168 51.3877 51.8547 55.5411 46.5031C59.6946 41.1515 54.2332 35.051 49.6804 32.0957C51.4376 31.856 63.0132 37.4829 65.0101 30.1344C67.0069 22.7859 52.8429 19.8478 52.8429 19.8478C52.8429 19.8478 68.0016 19.5054 65.6054 11.5977C63.2091 3.69015 50.2694 4.72851 43.0008 8.80217Z" fill="#1E88E5"/>
<path d="M13.273 43.4753C14.9934 43.4753 16.3881 42.0806 16.3881 40.3602C16.3881 38.6398 14.9934 37.2451 13.273 37.2451C11.5526 37.2451 10.1579 38.6398 10.1579 40.3602C10.1579 42.0806 11.5526 43.4753 13.273 43.4753Z" fill="#1E88E5"/>
<path fill-rule="evenodd" clip-rule="evenodd" d="M20.6193 34.539C20.6193 34.539 21.8974 28.3067 23.6546 30.3036C25.4119 32.3005 29.015 38.6904 29.015 38.6904C29.015 38.6904 36.5144 33.7422 38.032 34.539C39.5496 35.3357 40.9501 39.3841 40.3297 40.8744C39.7094 42.3647 31.771 44.7882 31.771 44.7882C31.771 44.7882 41.4667 56.9019 39.31 58.7391C37.1534 60.5762 33.4975 61.4548 31.771 60.5762C30.0445 59.6975 26.5441 47.6976 26.5441 47.6976C26.5441 47.6976 19.3733 55.2565 17.2167 54.2181C15.0601 53.1798 12.5839 50.7461 12.7437 48.8478C12.9034 46.9495 24.054 42.2848 24.054 42.2848L20.6193 34.539Z" fill="#1E88E5"/>
<path fill-rule="evenodd" clip-rule="evenodd" d="M36.6207 46.1376L42.6715 43.826L51.9177 58.9873C51.9177 58.9873 63.6792 54.7038 64.767 56.9474C65.8549 59.1909 67.2826 64.9017 62.6595 64.9698C58.0364 65.0377 46.1388 64.9698 46.1388 64.9698L36.6207 46.1376Z" fill="#1E88E5"/>
<path fill-rule="evenodd" clip-rule="evenodd" d="M72.3004 41.6753C90.6195 43.3917 75.9248 31.3802 62.6882 35.9729C57.3731 37.8171 72.494 47.5558 72.494 47.5558C72.494 47.5558 57.4919 43.4715 57.0992 48.7436C56.7065 54.0158 75.1243 59.1368 78.5266 54.9671C81.9289 50.7974 77.9169 44.6469 72.3004 41.6753Z" fill="#1E88E5"/>
</svg>
